Coordinates
version=1
nRows=24
nColumns=24
inDegrees=yes

Units are S.I. units (second, meters, Newtons, ...)
Angles are in degrees.

endheader
time	pelvis_tilt	pelvis_list	pelvis_rotation	pelvis_tx	pelvis_ty	pelvis_tz	hip_flexion_r	hip_adduction_r	hip_rotation_r	knee_angle_r	ankle_angle_r	subtalar_angle_r	mtp_angle_r	hip_flexion_l	hip_adduction_l	hip_rotation_l	knee_angle_l	ankle_angle_l	subtalar_angle_l	mtp_angle_l	lumbar_extension	lumbar_bending	lumbar_rotation
      4.64500000	    -19.95300153	      2.55400256	     -4.63332683	     -1.08945452	     -0.04633203	     -0.27560959	      3.04230574	     -0.82081563	     -1.37946188	    -17.02517278	     14.01331856	     -0.68042783	     -1.75407252	     47.71703155	     -4.25373561	    -22.24902598	    -11.79311315	     -2.88628038	     10.35418341	     22.60159568	     18.46103123	     -1.88827785	     -3.35829347
      4.65000000	    -19.89321850	      2.74257099	     -4.73925702	     -1.08204188	     -0.04722562	     -0.27621774	      2.82093696	     -1.18350519	     -1.35618691	    -17.61964467	     13.64265106	     -0.28705117	     -1.68877206	     47.69548900	     -4.12184141	    -21.93239274	    -12.22350864	     -3.07839121	     10.15513560	     22.64042655	     18.51344164	     -2.07820025	     -3.15327138
      4.65500000	    -19.83017415	      2.98666553	     -4.80887714	     -1.07451636	     -0.04810187	     -0.27693657	      2.62729527	     -1.62581620	     -1.35932158	    -18.27953267	     13.27316153	      0.17031032	     -1.56171805	     47.65780946	     -3.90706903	    -21.64016003	    -12.69761273	     -3.40750722	      9.77182630	     22.68482946	     18.57397220	     -2.32872233	     -3.00557173
      4.66000000	    -19.76804566	      3.21582804	     -4.88321043	     -1.06692313	     -0.04892795	     -0.27765182	      2.45546838	     -2.05426200	     -1.37360147	    -18.96555903	     12.79356676	      0.59458357	     -1.39485522	     47.62366732	     -3.71525889	    -21.36327582	    -13.24782433	     -3.84259413	      9.30569015	     22.74718971	     18.64476379	     -2.56613329	     -2.84709869
      4.66500000	    -19.71948419	      3.46909641	     -4.95001874	     -1.05924605	     -0.04972230	     -0.27838257	      2.32639040	     -2.51393453	     -1.40158389	    -19.69140957	     12.24988644	      1.00690249	     -1.16425420	     47.59837767	     -3.49901193	    -21.09740352	    -13.84283534	     -4.40822423	      8.67863030	     22.81312806	     18.73940843	     -2.83320002	     -2.69666188
      4.67000000	    -19.67846149	      3.73350045	     -5.00115901	     -1.05150768	     -0.05046639	     -0.27915534	      2.23950325	     -2.99272954	     -1.44903019	    -20.46549308	     11.62139999	      1.40447300	     -0.85290062	     47.58308987	     -3.26128067	    -20.81812311	    -14.48472306	     -5.10969249	      7.90566226	     22.87654265	     18.85009359	     -3.11690794	     -2.56587927
      4.67500000	    -19.64908253	      4.01211755	     -5.03867018	     -1.04372357	     -0.05115214	     -0.27996561	      2.20534678	     -3.49230620	     -1.50846024	    -21.29337788	     10.89850224	      1.77109401	     -0.44885896	     47.58359453	     -3.00031412	    -20.52052013	    -15.16373113	     -5.92843852	      6.98147089	     22.91139409	     18.97830419	     -3.41717189	     -2.45010284
      4.68000000	    -19.63021436	      4.30439484	     -5.06504959	     -1.03590561	     -0.05177080	     -0.28080050	      2.22775113	     -4.01117538	     -1.58796278	    -22.17683307	     10.07243812	      2.09343211	      0.05955821	     47.60474972	     -2.71824602	    -20.19186429	    -15.88599401	     -6.82516614	      5.90860858	     22.88803750	     19.12117389	     -3.73666541	     -2.35202755
      4.68500000	    -19.57223330	      4.58611707	     -4.98375866	     -1.02800578	     -0.05227641	     -0.28181471	      2.19939742	     -4.56270611	     -1.91395974	    -22.96745987	      8.94974830	      2.20969966	      2.50991153	     47.59830481	     -2.35197788	    -19.75999850	    -16.62102194	     -7.79916180	      4.71911223	     23.11387759	     19.21823885	     -4.08029591	     -2.34592366
      4.69000000	    -19.60507892	      4.88657620	     -4.97412257	     -1.02019504	     -0.05278818	     -0.28275229	      2.39657561	     -5.10576932	     -2.05636251	    -24.01727208	      7.93163986	      2.51287663	      3.03632741	     47.70934795	     -2.02554872	    -19.25875941	    -17.44667439	     -8.66656777	      3.46437571	     22.72833351	     19.40876889	     -4.40927072	     -2.25577727
      4.69500000	    -19.63719994	      5.19529910	     -4.89281948	     -1.01232111	     -0.05319770	     -0.28383657	      2.60846542	     -5.67987675	     -2.26718215	    -25.05074051	      6.71894539	      2.73090599	      4.32774835	     47.84258045	     -1.62350487	    -18.70292637	    -18.33360898	     -9.46043366	      2.14883968	     22.03581711	     19.59939109	     -4.76426829	     -2.29560008
      4.70000000	    -19.62420726	      5.54946341	     -4.86057481	     -1.00441417	     -0.05342574	     -0.28477155	      2.83319232	     -6.28169156	     -2.37522901	    -26.08064608	      5.21836883	      2.47598095	      6.67606014	     47.91617015	     -1.21484469	    -18.12377970	    -19.27241425	     -9.97436010	      1.07271479	     20.81160116	     19.75390208	     -5.16619512	     -2.21332831
      4.70500000	    -19.64650717	      5.84567659	     -4.79893904	     -0.99660423	     -0.05363904	     -0.28588122	      3.18281393	     -6.84952730	     -2.54037974	    -27.28485900	      3.73339042	      2.58685893	      7.93355236	     48.06457911	     -0.81628119	    -17.51966136	    -20.25824632	    -10.42288528	     -0.20036996	     19.85601717	     19.91887085	     -5.49596915	     -2.22179465
      4.71000000	    -19.59497697	      6.17173897	     -4.78130351	     -0.98874926	     -0.05365565	     -0.28684104	      3.49681738	     -7.42208183	     -2.56009191	    -28.43798745	      1.93220721	      2.17583228	     10.48299321	     48.11862350	     -0.41217575	    -16.87812184	    -21.31647822	    -10.45866572	     -1.05251645	     18.08810852	     20.01698611	     -5.86005644	     -2.11657451
      4.71500000	    -19.56265065	      6.47537434	     -4.73178591	     -0.98090674	     -0.05363306	     -0.28790445	      3.89976585	     -7.98479838	     -2.62880341	    -29.69775452	      0.05115191	      1.84670890	     12.54482400	     48.19324729	      0.01150109	    -16.26832881	    -22.37408134	    -10.39934196	     -1.98154075	     16.52939121	     20.12874234	     -6.19887402	     -2.07273366
      4.72000000	    -19.57380472	      6.78078933	     -4.61795626	     -0.97301452	     -0.05363102	     -0.28905320	      4.39740636	     -8.55852031	     -2.74888230	    -31.03837529	     -1.91846119	      1.54396653	     14.30749073	     48.30557242	      0.48412768	    -15.69901355	    -23.43352157	    -10.19049696	     -2.83342172	     15.07014974	     20.28601618	     -6.55803926	     -2.12592117
      4.72500000	    -19.50322449	      7.06192366	     -4.58378300	     -0.96529201	     -0.05346692	     -0.29009022	      4.89896828	     -9.07810886	     -2.68418023	    -32.41986229	     -4.05949875	      0.98827216	     16.45071961	     48.31582598	      0.89256135	    -15.18088400	    -24.50681863	     -9.75644493	     -3.47661347	     13.34685448	     20.32974448	     -6.87291038	     -2.07666887
      4.73000000	    -19.40632370	      7.32895660	     -4.55061960	     -0.95759811	     -0.05323462	     -0.29108908	      5.42848560	     -9.56647628	     -2.56220522	    -33.85077768	     -6.29558438	      0.34448832	     18.41646579	     48.26423972	      1.28713842	    -14.75795006	    -25.53310209	     -9.20424899	     -3.99413246	     11.82446982	     20.33890465	     -7.17725338	     -2.03224130
      4.73500000	    -19.28001834	      7.56636643	     -4.55638993	     -0.95010728	     -0.05294406	     -0.29204195	      6.02235967	     -9.99899845	     -2.33565880	    -35.38103462	     -8.56707900	     -0.34360388	     19.99429655	     48.15568226	      1.63380690	    -14.39840455	    -26.49922037	     -8.62410635	     -4.49352690	     10.58333144	     20.28123137	     -7.43839392	     -1.94031715
      4.74000000	    -19.17114223	      7.84292222	     -4.49532470	     -0.94236997	     -0.05262838	     -0.29296670	      6.61912213	    -10.46129746	     -2.14895856	    -36.86779740	    -10.94183467	     -1.18065989	     21.69330948	     47.99345691	      2.03780854	    -14.20357344	    -27.38527689	     -7.85810189	     -4.70512893	      9.33713727	     20.28727329	     -7.77114991	     -1.94163933
      4.74500000	    -19.03321169	      8.07006688	     -4.50256410	     -0.93492987	     -0.05227173	     -0.29384805	      7.29416126	    -10.83593599	     -1.82754498	    -38.47738559	    -13.25251815	     -1.97742592	     22.58700598	     47.76973119	      2.36170186	    -14.05860821	    -28.16886101	     -7.18112202	     -5.07708354	      8.66686799	     20.20986753	     -8.02429093	     -1.85966591
      4.75000000	    -18.87335902	      8.37507154	     -4.40196380	     -0.92742488	     -0.05188025	     -0.29473630	      7.95953724	    -11.30145745	     -1.63456285	    -40.15077069	    -15.45908517	     -2.74709390	     22.71714671	     47.44333807	      2.82350552	    -13.95842719	    -28.77467318	     -6.59767695	     -5.38262930	      8.55511374	     20.11846867	     -8.41173537	     -1.89385982
      4.75500000	    -18.83831380	      8.52723624	     -4.44299261	     -0.92016498	     -0.05157608	     -0.29548754	      8.83693380	    -11.51340025	     -1.15869135	    -41.77377021	    -17.74599144	     -3.76870187	     23.98831893	     47.25425343	      3.01146345	    -13.96912024	    -29.47609943	     -5.68004793	     -5.25352926	      7.66156768	     20.13241141	     -8.56934331	     -1.77910386
      4.76000000	    -18.67017670	      8.80897175	     -4.32674302	     -0.91284664	     -0.05110912	     -0.29641920	      9.56059999	    -11.92175622	     -0.92611232	    -43.45745210	    -19.80125917	     -4.59772566	     24.05207343	     46.83290448	      3.47260478	    -13.97533139	    -29.91398184	     -5.09974973	     -5.51242221	      7.60015048	     19.99565995	     -8.93351843	     -1.85790293
